<svg xmlns="http://www.w3.org/2000/svg" xmlns:xlink="http://www.w3.org/1999/xlink" aria-hidden="true" role="img" class="iconify iconify--logos" width="31.88" height="32" preserveAspectRatio="xMidYMid meet" viewBox="0 0 256 257"><defs><linearGradient id="IconifyId1813088fe1fbc01654" x1="-.894%" x2="57.636%" y1="7.652%" y2="78.411%"><stop offset="0%" stop-color="#41D1FF"></stop><stop offset="100%" stop-color="#BD34FE"></stop></linearGradient><linearGradient id="IconifyId1813088fe1fbc01655" x1="43.376%" x2="50.316%" y1="2.242%" y2="89.03%"><stop offset="0%" stop-color="#FFA834"></stop><stop offset="100%" stop-color="#FF6954"></stop></linearGradient></defs><path fill="url(#IconifyId1813088fe1fbc01654)" d="M255.153 37.938L134.897 252.926c-2.578 4.61-9.203 4.666-11.855.051L.872 37.958c-2.746-4.784 1.371-10.644 6.793-9.67l120.344 21.605a6.537 6.537 0 0 0 2.322-.004l117.984-21.572c5.438-.995 9.574 4.892 6.838 9.621Z"></path><path fill="url(#IconifyId1813088fe1fbc01655)" d="M185.432.063L96.406 16.501a3.268 3.268 0 0 0-2.664 2.983L82.734 111.154c-.457 2.38 1.59 4.453 3.976 4.048l22.395-3.813c2.379-.403 4.474 1.585 4.048 3.973l-13.639 76.223c-.484 2.698 2.86 4.373 4.746 2.366l30.07-32.069c1.562-1.66 4.298-1.174 5.182.921l16.592 39.288c1.08 2.57 4.772 2.352 5.555-.329l37.445-127.87c.74-2.522-1.446-4.909-4.014-4.365l-24.716 5.234c-2.356.499-4.406-1.568-3.92-3.923l16.013-77.399c.545-2.64-1.786-4.976-4.407-4.382l-24.383 5.498c-2.423.548-4.496-1.592-3.903-4.015L189.465.744c.677-2.773-1.749-5.175-4.033-4.681Z"></path></svg>
